<svg width="16" height="17" viewBox="0 0 16 17" fill="none" xmlns="http://www.w3.org/2000/svg">
<g clip-path="url(#clip0_42_310)">
<path d="M16 8.97217C16 13.3904 12.4183 16.9722 8 16.9722C3.58175 16.9722 0 13.3904 0 8.97217C0 8.97404 8 0.973074 8 0.972168C12.4183 0.972168 16 4.55392 16 8.97217Z" fill="#0052B4"/>
<path d="M7.97827 8.97262H7.99972C7.99972 8.96535 7.99972 8.9584 7.99972 8.95117C7.99258 8.95834 7.98544 8.96548 7.97827 8.97262Z" fill="#F0F0F0"/>
<path d="M7.99975 5.14656C7.99975 3.73891 7.99975 2.8165 7.99975 0.972656H7.99841C3.58075 0.973375 -0.000244141 4.55478 -0.000244141 8.97262H4.17366V6.62225L6.52403 8.97262H7.97838C7.98553 8.9655 7.99266 8.95837 7.99978 8.95122C7.99978 8.41225 7.99978 7.93134 7.99978 7.49697L5.64938 5.14656H7.99975Z" fill="#F0F0F0"/>
<path d="M4.04767 2.0155C2.79645 2.72797 1.75626 3.76816 1.04379 5.01938V8.97204H3.13076V4.1025V4.10247H8.00033C8.00033 3.44425 8.00033 2.81719 8.00033 2.0155H4.04767Z" fill="#D80027"/>
<path d="M8.00037 7.98802L5.1581 5.14577H4.17432C4.17432 5.14573 4.17432 5.14577 4.17432 5.14577L8.00034 8.9718H8.00037C8.00037 8.9718 8.00037 8.29352 8.00037 7.98802Z" fill="#D80027"/>
<path d="M4.82504 10.3634L5.26411 11.2815L6.25557 11.0523L5.81157 11.968L6.60889 12.6003L5.61617 12.824L5.61895 13.8417L4.82504 13.205L4.03117 13.8417L4.03395 12.824L3.0412 12.6003L3.83854 11.968L3.39448 11.0523L4.38601 11.2815L4.82504 10.3634Z" fill="#F0F0F0"/>
<path d="M11.978 12.1024L12.1976 12.5614L12.6933 12.4469L12.4713 12.9047L12.87 13.2209L12.3736 13.3327L12.375 13.8415L11.978 13.5232L11.5811 13.8415L11.5825 13.3327L11.0861 13.2209L11.4848 12.9047L11.2628 12.4469L11.7585 12.5614L11.978 12.1024Z" fill="#F0F0F0"/>
<path d="M9.93573 7.23328L10.1552 7.69234L10.651 7.57771L10.429 8.03556L10.8276 8.35171L10.3313 8.46359L10.3326 8.9724L9.93573 8.65406L9.53879 8.9724L9.54014 8.46359L9.04379 8.35171L9.44245 8.03556L9.22045 7.57771L9.7162 7.69234L9.93573 7.23328Z" fill="#F0F0F0"/>
<path d="M11.978 4.45068L12.1976 4.90975L12.6933 4.79515L12.4713 5.253L12.8699 5.56912L12.3736 5.68103L12.375 6.18984L11.978 5.8715L11.5811 6.18984L11.5825 5.68103L11.0861 5.56912L11.4847 5.253L11.2628 4.79515L11.7585 4.90975L11.978 4.45068Z" fill="#F0F0F0"/>
<path d="M13.7616 6.53723L13.9811 6.99629L14.4768 6.88167L14.2548 7.33951L14.6535 7.65567L14.1571 7.76757L14.1585 8.27636L13.7616 7.95804L13.3646 8.27636L13.366 7.76757L12.8696 7.65567L13.2683 7.33951L13.0463 6.88167L13.542 6.99629L13.7616 6.53723Z" fill="#F0F0F0"/>
<path d="M12.4862 8.97278L12.6589 9.50422H13.2177L12.7656 9.83268L12.9383 10.3641L12.4862 10.0357L12.0341 10.3641L12.2068 9.83268L11.7547 9.50422H12.3135L12.4862 8.97278Z" fill="#F0F0F0"/>
</g>
<defs>
<clipPath id="clip0_42_310">
<rect width="16" height="16" fill="white" transform="translate(0 0.972168)"/>
</clipPath>
</defs>
</svg>
