<svg width="26" height="26" viewBox="0 0 26 26" fill="none" xmlns="http://www.w3.org/2000/svg">
<path fill-rule="evenodd" clip-rule="evenodd" d="M25 11.7C25 11.5895 24.9105 11.5 24.8 11.5H7.18284C7.00466 11.5 6.91543 11.2846 7.04142 11.1586L14.9586 3.24142C15.0367 3.16332 15.0367 3.03668 14.9586 2.95858L13.1414 1.14142C13.0633 1.06332 12.9367 1.06332 12.8586 1.14142L1.14142 12.8586C1.06332 12.9367 1.06332 13.0633 1.14142 13.1414L12.8586 24.8586C12.9367 24.9367 13.0633 24.9367 13.1414 24.8586L14.9586 23.0414C15.0367 22.9633 15.0367 22.8367 14.9586 22.7586L7.04142 14.8414C6.91543 14.7154 7.00466 14.5 7.18284 14.5H24.8C24.9105 14.5 25 14.4105 25 14.3V11.7Z" fill="#2B3643" stroke="#2B3643" stroke-width="0.3"/>
</svg>
