<svg width="17" height="18" viewBox="0 0 17 18" fill="none" xmlns="http://www.w3.org/2000/svg">
<path d="M16.8333 8.49207C16.7326 6.86727 16.1587 5.30744 15.1822 4.00487C14.2058 2.7023 12.8695 1.71392 11.3382 1.16156C9.80682 0.609214 8.1473 0.517035 6.5642 0.896391C4.98109 1.27575 3.54359 2.11006 2.42889 3.29647C1.3142 4.48289 0.571029 5.96956 0.290997 7.57322C0.0109662 9.17687 0.206313 10.8274 0.852957 12.3214C1.4996 13.8154 2.56928 15.0875 3.93013 15.9809C5.29098 16.8744 6.88353 17.3501 8.51145 17.3494H13.0137C14.0263 17.3481 14.9971 16.9453 15.7132 16.2292C16.4292 15.5132 16.832 14.5424 16.8333 13.5298V8.55735V8.49207ZM14.7499 13.5298C14.7499 13.9902 14.567 14.4319 14.2414 14.7574C13.9158 15.083 13.4742 15.266 13.0137 15.266H8.51145C7.6291 15.2654 6.75677 15.0789 5.95133 14.7186C5.1459 14.3584 4.42544 13.8323 3.83695 13.1749C3.24585 12.518 2.80205 11.7422 2.53531 10.8997C2.26857 10.0572 2.18505 9.16741 2.29036 8.28998C2.45652 6.90672 3.07818 5.61805 4.0574 4.62701C5.03662 3.63597 6.31774 2.99889 7.69892 2.81614C7.96915 2.78242 8.24121 2.76549 8.51353 2.76545C9.96925 2.76128 11.3801 3.26917 12.4991 4.20023C13.1515 4.74214 13.6873 5.41063 14.0741 6.16535C14.461 6.92007 14.6909 7.74535 14.7499 8.59138V13.5298Z" fill="white"/>
<path d="M6.76345 8.32146H8.84687C9.12315 8.32146 9.38811 8.21171 9.58347 8.01635C9.77883 7.82099 9.88858 7.55603 9.88858 7.27975C9.88858 7.00347 9.77883 6.73851 9.58347 6.54315C9.38811 6.34779 9.12315 6.23804 8.84687 6.23804H6.76345C6.48717 6.23804 6.22221 6.34779 6.02685 6.54315C5.83149 6.73851 5.72174 7.00347 5.72174 7.27975C5.72174 7.55603 5.83149 7.82099 6.02685 8.01635C6.22221 8.21171 6.48717 8.32146 6.76345 8.32146Z" fill="white"/>
<path d="M11.6248 9.71045H6.76345C6.48717 9.71045 6.22221 9.8202 6.02685 10.0156C5.83149 10.2109 5.72174 10.4759 5.72174 10.7522C5.72174 11.0284 5.83149 11.2934 6.02685 11.4888C6.22221 11.6841 6.48717 11.7939 6.76345 11.7939H11.6248C11.901 11.7939 12.166 11.6841 12.3614 11.4888C12.5567 11.2934 12.6665 11.0284 12.6665 10.7522C12.6665 10.4759 12.5567 10.2109 12.3614 10.0156C12.166 9.8202 11.901 9.71045 11.6248 9.71045Z" fill="white"/>
</svg>
