<svg width="14" height="14" viewBox="0 0 14 14" fill="none" xmlns="http://www.w3.org/2000/svg">
<path d="M13.6667 6.56568C13.5861 5.26584 13.127 4.01797 12.3458 2.97592C11.5646 1.93386 10.4956 1.14315 9.27056 0.701273C8.04547 0.259392 6.71786 0.185649 5.45138 0.489134C4.18489 0.792619 3.03489 1.46007 2.14313 2.4092C1.25138 3.35833 0.656841 4.54767 0.432816 5.83059C0.208791 7.11352 0.365069 8.43396 0.882384 9.62915C1.3997 10.8243 2.25544 11.842 3.34412 12.5568C4.4328 13.2715 5.70684 13.6521 7.00918 13.6515H10.611C11.4211 13.6505 12.1977 13.3282 12.7706 12.7554C13.3434 12.1826 13.6656 11.4059 13.6667 10.5958V6.61791V6.56568ZM11.9999 10.5958C11.9999 10.9642 11.8536 11.3175 11.5931 11.578C11.3327 11.8385 10.9794 11.9848 10.611 11.9848H7.00918C6.3033 11.9844 5.60543 11.8352 4.96108 11.5469C4.31674 11.2587 3.74037 10.8379 3.26958 10.3119C2.7967 9.78639 2.44166 9.16581 2.22827 8.4918C2.01487 7.81779 1.94806 7.10595 2.0323 6.40401C2.16523 5.29739 2.66256 4.26646 3.44594 3.47363C4.22932 2.68079 5.25421 2.17113 6.35915 2.02494C6.57534 1.99796 6.79298 1.98441 7.01085 1.98438C8.17542 1.98105 9.30408 2.38735 10.1993 3.1322C10.7212 3.56573 11.1498 4.10053 11.4593 4.7043C11.7688 5.30808 11.9527 5.96831 11.9999 6.64513V10.5958Z" fill="black"/>
<path d="M5.61077 6.42931H7.27751C7.49853 6.42931 7.7105 6.34151 7.86679 6.18522C8.02308 6.02893 8.11088 5.81696 8.11088 5.59594C8.11088 5.37492 8.02308 5.16295 7.86679 5.00666C7.7105 4.85037 7.49853 4.76257 7.27751 4.76257H5.61077C5.38975 4.76257 5.17778 4.85037 5.02149 5.00666C4.86521 5.16295 4.7774 5.37492 4.7774 5.59594C4.7774 5.81696 4.86521 6.02893 5.02149 6.18522C5.17778 6.34151 5.38975 6.42931 5.61077 6.42931Z" fill="black"/>
<path d="M9.49982 7.54041H5.61077C5.38975 7.54041 5.17778 7.62821 5.02149 7.78449C4.86521 7.94078 4.7774 8.15275 4.7774 8.37377C4.7774 8.5948 4.86521 8.80677 5.02149 8.96305C5.17778 9.11934 5.38975 9.20714 5.61077 9.20714H9.49982C9.72085 9.20714 9.93282 9.11934 10.0891 8.96305C10.2454 8.80677 10.3332 8.5948 10.3332 8.37377C10.3332 8.15275 10.2454 7.94078 10.0891 7.78449C9.93282 7.62821 9.72085 7.54041 9.49982 7.54041Z" fill="black"/>
</svg>
