<svg width="18" height="18" viewBox="0 0 18 18" fill="none" xmlns="http://www.w3.org/2000/svg">
<path d="M13.8611 10.3612C12.8342 10.3651 11.8623 10.826 11.2097 11.6189L7.45971 9.92583C7.55508 9.61678 7.60606 9.29575 7.61111 8.97235C7.60661 8.65246 7.5573 8.33478 7.46459 8.0286L11.2104 6.3272C12.4452 7.78036 14.6242 7.95741 16.0773 6.72268C17.5305 5.48795 17.7075 3.30895 16.4728 1.85579C15.238 0.402637 13.059 0.225554 11.6059 1.46032C10.8285 2.12083 10.3831 3.09124 10.3889 4.11126C10.3889 4.20986 10.4097 4.30292 10.4181 4.39944L6.29168 6.27235C5.68334 5.77662 4.92364 5.50409 4.13891 5.50012C2.22127 5.50012 0.666687 7.05467 0.666687 8.97235C0.666687 10.89 2.22124 12.4446 4.13891 12.4446C4.92026 12.4414 5.67716 12.1719 6.28474 11.6807L10.4181 13.5467C10.4097 13.6432 10.3889 13.7356 10.3889 13.8335C10.3889 15.7511 11.9435 17.3057 13.8611 17.3057C15.7788 17.3057 17.3334 15.7511 17.3334 13.8335C17.3334 11.9158 15.7788 10.3612 13.8611 10.3612ZM13.8611 2.72239C14.6281 2.72239 15.25 3.34423 15.25 4.11129C15.25 4.87834 14.6281 5.50018 13.8611 5.50018C13.094 5.50018 12.4722 4.87834 12.4722 4.11129C12.4722 3.34423 13.094 2.72239 13.8611 2.72239ZM4.13891 10.3612C3.37186 10.3612 2.75002 9.7394 2.75002 8.97235C2.75002 8.20529 3.37186 7.58345 4.13891 7.58345C4.90597 7.58345 5.52781 8.20529 5.52781 8.97235C5.52781 9.7394 4.90597 10.3612 4.13891 10.3612ZM13.8611 15.2224C13.094 15.2224 12.4722 14.6006 12.4722 13.8335C12.4722 13.0664 13.094 12.4446 13.8611 12.4446C14.6281 12.4446 15.25 13.0664 15.25 13.8335C15.25 14.6006 14.6281 15.2224 13.8611 15.2224Z" fill="black"/>
</svg>
