<svg width="16" height="17" viewBox="0 0 16 17" fill="none" xmlns="http://www.w3.org/2000/svg">
<path d="M11.0543 2.97217C10.429 2.98189 9.81731 3.15646 9.28103 3.47823C8.74475 3.79999 8.30287 4.25758 8.00001 4.80476C7.69715 4.25758 7.25527 3.79999 6.71899 3.47823C6.18271 3.15646 5.57102 2.98189 4.94569 2.97217C3.94883 3.01548 3.00964 3.45156 2.33329 4.18514C1.65694 4.91872 1.29841 5.89017 1.33603 6.88726C1.33603 9.41235 3.99385 12.1701 6.22295 14.0399C6.72065 14.4582 7.34991 14.6875 8.00001 14.6875C8.65011 14.6875 9.27937 14.4582 9.77707 14.0399C12.0062 12.1701 14.664 9.41235 14.664 6.88726C14.7016 5.89017 14.3431 4.91872 13.6667 4.18514C12.9904 3.45156 12.0512 3.01548 11.0543 2.97217Z" fill="#F04438"/>
</svg>
