<svg width="16" height="17" viewBox="0 0 16 17" fill="none" xmlns="http://www.w3.org/2000/svg">
<path d="M10.912 2.97217C10.3426 2.97764 9.78242 3.1156 9.2763 3.37498C8.77018 3.63436 8.33222 4.00796 7.9975 4.46585C7.66278 4.00796 7.22482 3.63436 6.7187 3.37498C6.21258 3.1156 5.65238 2.97764 5.08297 2.97217C4.05137 3.01311 3.07806 3.45839 2.37585 4.21063C1.67364 4.96287 1.29967 5.96086 1.33571 6.9864C1.33571 9.49812 3.93048 12.187 6.10999 14.0007C6.63923 14.443 7.30853 14.6855 8 14.6855C8.69147 14.6855 9.36076 14.443 9.89 14.0007C12.0673 12.187 14.6643 9.49812 14.6643 6.9864C14.7003 5.96004 14.3257 4.96131 13.6224 4.20893C12.9191 3.45655 11.9445 3.01183 10.912 2.97217ZM8.81746 12.7321C8.58786 12.9243 8.29736 13.0296 7.99722 13.0296C7.69708 13.0296 7.40659 12.9243 7.17699 12.7321C4.52338 10.5206 3.00116 8.42655 3.00116 6.9864C2.96576 6.39997 3.16453 5.82333 3.5543 5.38169C3.94407 4.94004 4.49338 4.66904 5.08297 4.62752C5.67255 4.66904 6.22187 4.94004 6.61164 5.38169C7.00141 5.82333 7.20017 6.39997 7.16478 6.9864C7.16478 7.20591 7.25251 7.41643 7.40868 7.57165C7.56484 7.72687 7.77665 7.81407 7.9975 7.81407C8.21835 7.81407 8.43016 7.72687 8.58632 7.57165C8.74249 7.41643 8.83022 7.20591 8.83022 6.9864C8.79483 6.39997 8.99359 5.82333 9.38336 5.38169C9.77313 4.94004 10.3224 4.66904 10.912 4.62752C11.5016 4.66904 12.0509 4.94004 12.4407 5.38169C12.8305 5.82333 13.0292 6.39997 12.9938 6.9864C12.9938 8.42655 11.4716 10.5206 8.81746 12.7321Z" fill="black"/>
</svg>
