<svg width="21" height="20" viewBox="0 0 21 20" fill="none" xmlns="http://www.w3.org/2000/svg">
<path d="M14.1401 2.5C13.4283 2.50684 12.728 2.67929 12.0954 3.00352C11.4628 3.32774 10.9153 3.79474 10.4969 4.3671C10.0785 3.79474 9.53105 3.32774 8.89841 3.00352C8.26576 2.67929 7.5655 2.50684 6.85374 2.5C5.56424 2.55118 4.3476 3.10778 3.46984 4.04807C2.59207 4.98837 2.12461 6.23587 2.16967 7.51779C2.16967 10.6574 5.41312 14.0185 8.13752 16.2856C8.79907 16.8385 9.63569 17.1417 10.5 17.1417C11.3644 17.1417 12.201 16.8385 12.8625 16.2856C15.5841 14.0185 18.8304 10.6574 18.8304 7.51779C18.8754 6.23484 18.4071 4.98643 17.528 4.04596C16.6489 3.10548 15.4307 2.54958 14.1401 2.5ZM11.5218 14.6999C11.2348 14.9401 10.8717 15.0718 10.4966 15.0718C10.1214 15.0718 9.75826 14.9401 9.47126 14.6999C6.15425 11.9355 4.25148 9.31798 4.25148 7.51779C4.20723 6.78475 4.45569 6.06396 4.9429 5.5119C5.43011 4.95984 6.11675 4.62109 6.85374 4.56919C7.59072 4.62109 8.27736 4.95984 8.76457 5.5119C9.25179 6.06396 9.50024 6.78475 9.456 7.51779C9.456 7.79218 9.56566 8.05533 9.76087 8.24935C9.95608 8.44338 10.2208 8.55238 10.4969 8.55238C10.773 8.55238 11.0377 8.44338 11.2329 8.24935C11.4281 8.05533 11.5378 7.79218 11.5378 7.51779C11.4936 6.78475 11.742 6.06396 12.2292 5.5119C12.7164 4.95984 13.4031 4.62109 14.1401 4.56919C14.8771 4.62109 15.5637 4.95984 16.0509 5.5119C16.5381 6.06396 16.7866 6.78475 16.7423 7.51779C16.7423 9.31798 14.8396 11.9355 11.5218 14.6999Z" fill="white"/>
</svg>
